<svg width="168" height="43" viewBox="0 0 168 43" fill="none" xmlns="http://www.w3.org/2000/svg">
<path d="M107.834 14.5023C106.869 14.7588 105.999 14.9137 104.918 15.0291V15.3577C106.134 15.3577 106.289 15.4937 106.289 16.4988V19.8776C105.574 18.7188 105.014 18.3719 103.972 18.3719C101.906 18.3719 100.46 20.3216 100.46 23.1033C100.46 25.885 101.926 27.8364 104.03 27.8364C105.131 27.8364 105.884 27.3353 106.424 26.2536C106.501 26.9867 106.502 27.0638 106.695 27.7981C107.486 27.5467 107.814 27.469 108.954 27.3341L109.242 27.2947V26.9667C107.949 26.9284 107.834 26.8313 107.834 25.6536V14.5023ZM55.7431 14.6428C55.1343 14.7136 54.5217 14.7463 53.9088 14.7406C53.3677 14.7406 53.0785 14.7217 52.3265 14.6634V15.1446C53.6579 15.2223 53.9277 15.4154 53.9277 16.3045V16.4211L53.5219 25.9044C53.4837 26.9478 53.2917 27.1015 51.9403 27.1987V27.6627C52.9448 27.585 53.3288 27.5661 53.8694 27.5661C54.4105 27.5661 54.7956 27.585 55.7813 27.6627V27.1987C54.4294 27.1015 54.1785 26.9278 54.1785 26.0781V25.9044L54.5648 15.88L57.7305 24.437L57.9625 25.1124L58.2339 25.865L58.5036 26.6193L58.7167 27.2381H59.007L59.2179 26.6004L59.4687 25.865L59.7384 25.1518L59.9704 24.5124L63.1567 15.8988L63.3304 25.9044V26.001C63.3304 26.909 63.0412 27.121 61.7276 27.1987V27.6627C62.9441 27.5467 63.407 27.5084 64.1412 27.5084C64.8738 27.5084 65.3378 27.5467 66.5543 27.6627V27.1987C65.1641 27.1015 64.9898 26.9478 64.9709 25.9044L64.7595 16.4211V16.2857C64.7595 15.416 65.0486 15.2228 66.3618 15.1446V14.6634C65.6281 14.7217 65.3189 14.7406 64.8367 14.7406C64.2572 14.7406 63.8527 14.7206 62.9835 14.6428L59.335 24.4176L55.7431 14.6428ZM130.843 14.72V15.2046C132.232 15.2811 132.426 15.4348 132.426 16.4783V25.8456C132.426 26.889 132.272 27.0233 130.843 27.1398V27.6038H135.728C137.156 27.6038 137.928 27.4301 138.739 26.9284C139.705 26.3101 140.341 25.1307 140.341 23.9136C140.341 22.8713 139.897 21.9256 139.144 21.3462C138.738 21.0376 138.313 20.8628 137.619 20.7273C139.009 20.2062 139.744 19.2211 139.744 17.8697C139.744 16.864 139.318 15.9748 138.584 15.4154C137.928 14.9326 137.175 14.7194 135.92 14.7194L130.843 14.72ZM134.048 15.32H135.688C137.311 15.32 138.024 16.1108 138.024 17.9079C138.024 18.7959 137.813 19.4336 137.388 19.9359C136.964 20.4188 136.442 20.5736 135.36 20.5736H134.048V15.32ZM89.6455 18.0817L89.1232 19.0662C88.5055 18.4674 87.9843 18.2548 87.1546 18.2548C84.8764 18.2548 83.3313 20.2262 83.3313 23.1033C83.3313 25.9233 84.857 27.8175 87.0964 27.8175C88.8346 27.8175 89.934 26.6958 90.1849 24.629H89.3929C89.1615 26.329 88.4466 27.1798 87.2489 27.1798C85.7632 27.1798 85.0107 25.8084 85.0107 23.1033C85.0107 20.3411 85.8615 18.7776 87.3089 18.7776C88.4872 18.7776 89.2003 19.5879 89.5472 21.2679H89.9735V18.0817H89.6455ZM124.238 18.1399L123.91 18.9308C123.254 18.4874 122.695 18.3137 121.942 18.3137C120.242 18.3137 119.046 19.3565 119.046 20.8828C119.046 22.0027 119.491 22.5433 120.899 23.201L121.787 23.605L122.52 23.9336C123.466 24.3587 123.834 24.8027 123.834 25.4593C123.834 26.445 122.984 27.1987 121.845 27.1987C120.494 27.1987 119.682 26.349 119.334 24.5913L118.911 24.6101V27.8364H119.258L119.72 26.9667C120.454 27.5461 121.149 27.7781 122.038 27.7781C123.853 27.7781 125.147 26.6204 125.147 24.997C125.147 23.8576 124.624 23.2387 123.158 22.6016L122.347 22.2542C120.589 21.4816 120.301 21.2313 120.301 20.4582C120.301 19.5502 121.092 18.8548 122.115 18.8548C123.331 18.8548 123.968 19.5891 124.142 21.1336H124.587V18.1394L124.238 18.1399ZM152.777 18.1399C152.007 18.4108 151.349 18.5645 150.228 18.7194V19.0474C150.325 19.0474 150.423 19.0662 150.481 19.0662C151.446 19.0662 151.561 19.1834 151.58 19.9748V26.233C151.58 27.0633 151.389 27.2181 150.211 27.2758V27.6627C151.215 27.5655 151.619 27.5472 152.294 27.5472C152.99 27.5472 153.377 27.5655 154.381 27.6627V27.2758C153.377 27.2375 153.126 27.0438 153.126 26.2724V21.5959C153.126 20.0125 153.82 19.1834 155.134 19.1834C156.368 19.1834 156.87 19.8588 156.87 21.5393V26.2724C156.87 27.0438 156.619 27.2375 155.577 27.2758V27.6627C156.58 27.5655 156.966 27.5472 157.681 27.5472C158.375 27.5472 158.763 27.5655 159.787 27.6627V27.2758C158.609 27.2187 158.414 27.0633 158.414 26.233V21.5959C158.414 20.8628 158.318 20.3216 158.124 19.8588C157.739 18.9119 156.735 18.3137 155.577 18.3137C154.458 18.3137 153.665 18.7771 152.969 19.8205C152.93 19.0862 152.874 18.5845 152.777 18.1399ZM78.4759 18.1777C77.6833 18.4091 77.0274 18.5262 75.9268 18.6228V18.9702H76.1776C77.1811 18.9891 77.2788 19.0868 77.2976 19.9171V26.233C77.2976 27.0633 77.0862 27.2181 75.9079 27.2758V27.6627C76.9702 27.5655 77.3753 27.5455 78.0708 27.5455C78.7462 27.5455 79.1519 27.5655 80.2125 27.6627V27.2758C79.0353 27.2187 78.8422 27.0633 78.8422 26.233V22.1959C78.8422 20.2828 79.4787 19.0679 80.4822 19.0679C80.8296 19.0679 81.0627 19.2594 81.0627 19.5308V19.7039L81.0233 19.8982C81.0044 19.9759 80.9856 20.0525 80.9856 20.0902C80.9856 20.4776 81.333 20.7473 81.7776 20.7473C82.2599 20.7473 82.5884 20.3793 82.5884 19.8193C82.5884 18.8931 81.8736 18.2554 80.9084 18.2554C79.905 18.2554 79.0736 18.8931 78.6496 19.9942V19.7811C78.6102 19.2016 78.5719 18.8931 78.4759 18.1777ZM71.244 18.2554C68.9269 18.2554 67.48 20.1285 67.48 23.1033C67.48 26.0776 68.9269 27.8175 71.4171 27.8175C73.3091 27.8175 74.5445 26.6381 74.796 24.6484H74.0245C73.7925 26.2907 72.9428 27.1798 71.572 27.1798C69.8154 27.1798 69.0435 25.8284 69.0246 22.8142H74.7771C74.7388 19.8399 73.5223 18.2554 71.244 18.2554ZM95.3254 18.2554C93.0083 18.2554 91.5603 20.1285 91.5603 23.1033C91.5603 26.0776 93.0083 27.8175 95.4985 27.8175C97.3905 27.8175 98.6271 26.6381 98.8773 24.6484H98.1048C97.8734 26.2907 97.0242 27.1798 95.6534 27.1798C93.8968 27.1798 93.1237 25.8284 93.1043 22.8142H98.8585C98.8191 19.8399 97.6036 18.2554 95.3254 18.2554ZM113.739 18.2554C111.422 18.2554 109.974 20.1285 109.974 23.1033C109.974 26.0776 111.422 27.8175 113.913 27.8175C115.805 27.8175 117.04 26.6381 117.291 24.6484H116.518C116.286 26.2907 115.438 27.1798 114.067 27.1798C112.311 27.1798 111.538 25.8284 111.518 22.8142H117.273C117.233 19.8399 116.017 18.2554 113.739 18.2554ZM145.674 18.2554C143.357 18.2554 141.909 20.1285 141.909 23.1033C141.909 26.0776 143.357 27.8175 145.848 27.8175C147.74 27.8175 148.975 26.6381 149.226 24.6484H148.453C148.222 26.2907 147.374 27.1798 146.004 27.1798C144.246 27.1798 143.474 25.8284 143.455 22.8142H149.208C149.168 19.8399 147.953 18.2554 145.674 18.2554ZM161.194 18.4868L160.747 20.9982H161.135C161.83 19.2599 162.138 18.9891 163.394 18.9891H165.767L160.536 27.6044H167.176L167.68 24.8233H167.275C166.694 26.581 166.155 27.1021 164.84 27.1021H162.583L167.834 18.4868H161.194ZM71.2251 18.7571C72.48 18.7571 73.1165 19.8388 73.2331 22.1187H69.0623C69.2555 19.8976 69.9892 18.7571 71.2251 18.7571ZM95.3048 18.7571C96.5597 18.7571 97.1968 19.8388 97.3128 22.1187H93.142C93.3351 19.8976 94.0688 18.7571 95.3048 18.7571ZM113.72 18.7571C114.975 18.7571 115.612 19.8388 115.728 22.1187H111.558C111.75 19.8976 112.485 18.7571 113.72 18.7571ZM145.655 18.7571C146.91 18.7571 147.547 19.8388 147.663 22.1187H143.493C143.685 19.8976 144.42 18.7571 145.655 18.7571ZM104.146 18.9114C105.574 18.9114 106.308 20.3811 106.308 23.2199C106.308 25.905 105.594 27.2947 104.204 27.2947C102.814 27.2947 102.081 25.8467 102.081 23.0844C102.081 20.2833 102.756 18.9114 104.146 18.9114ZM134.048 21.173H135.882C136.905 21.173 137.484 21.3456 137.928 21.7902C138.372 22.2347 138.622 23.0645 138.622 23.9919C138.622 25.9233 137.657 27.0061 135.939 27.0061H135.245C134.221 27.0061 134.048 26.8501 134.048 26.0004V21.173ZM126.304 21.9388V22.9376H130.619V21.9388H126.304ZM22.0532 7.3098C22.0532 7.03266 21.9692 7.02352 21.9469 7.29952L21.0635 20.4742L21.9424 20.9885L22.0526 7.31037L22.0532 7.3098ZM17.9298 23.5519L21.6384 21.4965L20.7961 21.0279L17.8258 23.4599C17.6601 23.6022 17.7344 23.661 17.9298 23.5519Z" fill="#B7BFC7"/>
<path d="M22.1183 0.253909C10.3585 0.248195 0.820312 9.69378 0.820312 21.3348C0.820312 32.9758 10.3516 42.4116 22.1183 42.4156C33.885 42.4191 43.4249 32.9758 43.4249 21.3348C43.4249 9.69321 33.8936 0.253909 22.1183 0.253909ZM22.1183 41.6128C14.115 41.6128 7.83508 37.4506 4.84426 31.7272L5.30654 31.5575C6.08367 32.8255 7.09909 33.9403 8.46307 35.4472C10.1442 37.2951 15.4607 40.8642 22.1143 40.8642C25.4726 40.8764 28.7782 40.0296 31.717 38.4043C34.6565 36.7785 37.1316 34.4283 38.9072 31.5769C39.1758 31.5015 39.2615 31.3849 39.1724 31.1512C40.7718 28.3324 41.8581 24.7913 41.8581 21.3308C41.8581 19.1514 41.5381 17.3783 41.0312 15.7937C40.7176 14.8176 40.3357 13.8648 39.8884 12.9423C39.8378 12.8609 39.8116 12.7667 39.8129 12.6709C39.8935 12.732 39.9587 12.8115 40.0027 12.9023C40.3118 13.4669 41.0044 14.8497 41.3295 15.7497C41.7683 16.9508 42.55 18.6137 42.55 21.3308C42.5546 32.4221 33.473 41.6191 22.1183 41.6128ZM5.06368 31.2369L19.9795 20.5108L18.7035 19.7828L5.41454 30.8341C3.92199 28.1284 2.88543 24.6542 2.88543 21.3502C2.88543 10.8875 11.211 2.41674 21.7526 2.35217L19.0332 19.2737L20.3041 20.0125L22.0126 2.35502C22.0446 2.13217 22.1972 2.13217 22.1972 2.35502L22.2977 20.9753L25.3246 19.1977L22.424 2.34817C32.785 2.62531 41.3689 10.9858 41.3689 21.3171C41.3689 24.6484 40.3632 28.1284 38.8392 30.8512L25.564 19.7885L24.2857 20.5188L38.5541 30.8712C38.897 31.1152 38.7918 31.2261 38.4272 31.0226L22.4046 21.7782V25.2427L38.4638 31.3815C35.0981 36.8729 29.0274 40.386 22.0772 40.386C15.1116 40.386 9.13849 36.8746 5.77282 31.3746L21.8606 25.2319V21.7679L5.20025 31.3964C4.80483 31.6141 4.70026 31.4924 5.06368 31.2369ZM4.6534 31.4426C3.94884 29.9815 3.20657 27.9227 2.89914 26.2941C2.88429 26.2084 2.88771 26.1204 2.91057 26.037C2.962 26.1136 3.00086 26.1981 3.02771 26.2867C3.51056 27.7815 3.93227 29.1261 5.03397 31.1455L4.6534 31.4426ZM42.5198 17.7582C42.469 17.6847 42.4299 17.6037 42.4038 17.5183C40.8466 12.7137 39.5204 10.8263 36.9644 8.01952C33.5965 4.32357 28.0994 1.46589 22.2486 1.45961C11.0659 1.45846 1.99401 10.5372 1.99401 21.7245C1.99401 25.0502 2.71914 27.9233 3.30199 29.3661C3.98484 31.0392 5.16711 33.2929 5.22597 33.3946C5.26768 33.4775 5.28882 33.5695 5.28882 33.6626C5.21203 33.6012 5.14731 33.526 5.09797 33.4409C4.75912 32.9483 3.36999 30.4455 2.93971 29.3512C1.99401 26.9707 1.29973 24.3736 1.29973 21.6479C1.29973 10.1178 10.6265 0.767616 22.1589 0.767616C32.461 0.767616 40.7661 7.92752 42.5198 17.5114C42.5369 17.5931 42.5369 17.6771 42.5198 17.7582Z" fill="#B7BFC7"/>
<path d="M34.4804 28.3501L23.5005 20.9885L22.5977 21.5045L34.4278 28.4341C34.6381 28.5553 34.6826 28.4799 34.4804 28.3501Z" fill="#B7BFC7"/>
</svg>
