<svg width="73" height="32" viewBox="0 0 73 32" fill="none" xmlns="http://www.w3.org/2000/svg">
<path d="M30.705 11.1678C34.1337 2.76048 27.7189 0.475098 23.5528 0.475098H9.72769C10.1301 0.727827 10.4261 1.11806 10.5601 1.57262C10.6942 2.02717 10.6571 2.5148 10.4558 2.94406L2.40034 28.5699C2.2076 29.0682 1.9167 29.5231 1.54472 29.9077C1.17274 30.2923 0.727188 30.5989 0.234375 30.8094H11.4143C10.9711 30.6755 10.5987 30.373 10.3778 29.9675C10.157 29.5622 10.1055 29.0864 10.2346 28.6434L13.1563 19.3731C13.1563 19.3731 26.6221 21.2089 30.6683 11.1678H30.705ZM19.8385 2.8339C21.304 2.8339 25.3686 3.03583 22.7325 10.6722C19.9676 18.6941 13.9121 17.0419 13.9121 17.0419L18.3823 2.8339H19.8292H19.8385Z" fill="#B7BFC7"/>
<path d="M39.6525 30.8277H47.1826C44.4202 29.817 41.9063 28.2304 39.8091 26.1743C41.4717 24.6001 42.4785 22.4606 42.6295 20.1808H38.7307C38.9569 20.3252 39.1434 20.5232 39.2737 20.7571C39.4041 20.991 39.4741 21.2534 39.4773 21.5209C39.4491 22.545 39.0976 23.5341 38.4726 24.3479C37.0526 22.4547 36.1049 20.2526 35.7076 17.9229C37.6336 17.144 39.4469 16.1131 41.0996 14.8574C41.6783 14.4231 42.1577 13.8711 42.5057 13.2381C42.8537 12.6052 43.0625 11.9057 43.1179 11.1861V11.076C43.1203 10.6264 43.0316 10.1811 42.8574 9.76643C42.6833 9.35169 42.4271 8.97612 42.1041 8.66212C41.4627 8.08957 40.6924 7.67899 39.8584 7.46494C39.0243 7.2509 38.1507 7.23965 37.3113 7.43219C36.0426 7.68455 34.8615 8.26009 33.8828 9.10263C31.6154 11.232 31.3297 14.729 31.3297 16.3168V17.1612L30.9702 17.308C29.3111 17.9229 24.8779 19.0886 23.3018 22.7232C22.9743 23.5566 22.8086 24.4442 22.8134 25.339C22.7939 26.4423 23.0913 27.5283 23.6706 28.4688C24.7857 30.2127 26.6844 31.3141 29.7168 31.2224C33.0164 31.1673 36.2699 28.9277 36.8413 28.4688C37.6795 29.3256 38.6063 30.0917 39.6064 30.7543L39.6525 30.8277ZM39.6525 10.5529C39.2654 12.9943 36.0856 15.4632 35.3113 15.7937C35.0744 13.9523 35.4533 12.0846 36.3897 10.4794C37.1454 9.30456 38.1686 8.79063 38.9887 9.0843C39.6525 9.31372 39.717 9.91033 39.6617 10.5529H39.6525ZM35.2653 26.8902C34.086 27.5665 32.7877 28.0119 31.4403 28.2026C29.9195 28.3495 27.3942 27.7621 27.4126 24.7333C27.4126 22.1451 30.2329 20.2544 31.7722 19.5934C32.4699 22.2229 33.6579 24.6981 35.2746 26.8902H35.2653Z" fill="#B7BFC7"/>
<path d="M62.5227 2.86141C66.9928 1.78755 70.6795 5.27531 71.0114 5.51395L72.2832 1.4755C70.5229 0.943159 57.6837 -3.37982 48.6145 6.92742C43.0384 13.2695 41.6744 26.2569 48.7436 29.7447C56.3106 33.4711 64.6701 29.1757 65.3338 28.8728L68.744 17.9047C68.9207 17.2528 69.2628 16.6572 69.7372 16.1751C70.2118 15.6929 70.803 15.3403 71.4537 15.1512H59.4719C60.0132 15.2995 60.4737 15.6545 60.7533 16.1393C61.0329 16.624 61.109 17.1991 60.9651 17.7395L57.5087 28.7075C57.0479 28.7902 47.3702 31.1948 52.7898 14.3619C53.9786 10.7456 57.2322 4.12803 62.5502 2.85225L62.5227 2.86141Z" fill="#B7BFC7"/>
</svg>
