<svg width="132" height="44" viewBox="0 0 132 44" fill="none" xmlns="http://www.w3.org/2000/svg">
<mask id="mask0_1634_5561" style="mask-type:luminance" maskUnits="userSpaceOnUse" x="0" y="0" width="132" height="44">
<path d="M0.28125 0.000976562H131.359V43.9992H0.28125V0.000976562Z" fill="white"/>
</mask>
<g mask="url(#mask0_1634_5561)">
<path fill-rule="evenodd" clip-rule="evenodd" d="M0.28125 17.601C0.28125 11.301 4.8698 5.50073 13.5662 5.50073C20.5364 5.50073 25.9553 10.4538 25.9772 17.0796C25.9772 23.9878 21.6071 29.5274 15.5327 29.5274C13.5007 29.5274 11.5778 28.463 10.9224 27.2247C10.9224 27.2247 9.91718 31.0481 9.67684 31.9823C8.9995 34.5674 6.59597 38.1518 6.39932 38.4125C6.37746 38.456 6.31191 38.4994 6.24637 38.4994C6.13711 38.4994 6.02786 38.4125 6.02786 38.3039C5.96231 37.9346 5.26311 33.6332 5.87491 30.983C6.24637 29.4188 8.23474 21.0334 8.23474 21.0334C7.81959 20.0993 7.60108 19.0782 7.62293 18.0572C7.62293 15.2765 9.23985 13.191 11.272 13.191C12.9762 13.191 13.8065 14.4727 13.8065 16.0151C13.8065 17.077 13.3883 18.4633 12.9452 19.932C12.6721 20.837 12.3896 21.7733 12.1896 22.6843C11.7089 24.6612 13.1948 26.2905 15.1613 26.2905C18.7229 26.2905 21.476 22.554 21.476 17.1448C21.476 12.3655 18.0237 9.02001 13.0855 9.02001C7.36073 9.02001 3.99579 13.2779 3.99579 17.6879C3.99579 19.4041 4.6513 21.2506 5.48161 22.25C5.61271 22.4237 5.67826 22.6409 5.61271 22.8364C5.53328 23.1636 5.40081 23.6841 5.28264 24.1485C5.17326 24.5783 5.07611 24.96 5.0446 25.0957C4.9572 25.465 4.76055 25.5302 4.36725 25.3564C1.85447 24.1833 0.28125 20.5337 0.28125 17.601ZM68.8056 21.2065C70.204 21.2065 70.6848 22.0537 70.6848 23.053C70.6848 24.7474 69.3738 25.7684 67.298 25.7684C66.4896 25.7467 65.6811 25.6164 64.9163 25.3991C65.1785 23.8351 66.1836 21.2065 68.8056 21.2065ZM98.631 21.2065C99.8987 21.2065 100.51 22.0537 100.51 23.053C100.51 24.7474 99.1993 25.7684 97.1232 25.7684C96.3147 25.7467 95.5062 25.6164 94.7418 25.3991C95.0039 23.8351 96.1405 21.2065 98.631 21.2065ZM126.905 21.3368H130.074C130.511 21.3368 130.773 21.163 130.861 20.7503C130.916 20.5369 130.983 20.266 131.05 19.9952C131.168 19.5215 131.285 19.0478 131.341 18.882C131.428 18.5127 131.232 18.252 130.817 18.252H127.67C127.708 18.0972 127.767 17.8812 127.838 17.6202C128.173 16.3799 128.785 14.1217 128.785 12.5603C128.785 8.78033 125.551 5.56518 120.962 5.56518C115.784 5.56518 112.419 9.01929 112.419 13.8637C112.441 15.3192 112.855 16.7313 113.621 17.9696C113.337 17.9478 113.052 17.9478 112.768 17.9478C108.835 17.9478 106.366 20.0768 106.366 23.1616C106.366 26.0508 108.661 27.1805 110.824 27.9408C111.118 28.0439 111.409 28.1383 111.689 28.2296C113.247 28.7353 114.516 29.1478 114.516 30.4174C114.516 31.4167 113.555 32.0033 111.633 32.0033C109.381 32.0033 108.136 30.9388 107.808 30.5477C108.158 30.2436 108.355 29.7874 108.333 29.3095C108.333 28.3753 107.677 27.6367 106.454 27.6367C105.427 27.6367 104.552 28.4622 104.334 29.5702C102.673 30.9171 100.882 31.786 98.3258 31.786C95.7904 31.786 94.5016 30.4826 94.5016 27.7019C95.0919 27.8757 96.6429 28.0929 97.6484 28.0929C101.909 28.0929 104.815 26.1595 104.815 22.2927C104.815 20.2071 102.98 18.0347 99.3524 18.0347H99.3304C94.5667 18.0347 91.8795 21.0327 90.7214 24.3564C90.5576 24.3129 90.3937 24.275 90.2298 24.2369C90.0659 24.1989 89.9021 24.1608 89.7382 24.1174C90.0441 23.3136 90.197 22.4447 90.197 21.5975C90.197 19.9682 89.1701 18.0347 86.4607 18.0347C84.5597 18.0347 82.7679 19.273 81.5225 21.1196C81.6617 20.5658 81.7829 20.1021 81.8736 19.755C81.9821 19.3396 82.0469 19.0912 82.0469 19.0558C82.1343 18.7299 82.0032 18.3823 81.5007 18.3823H78.7039C78.3105 18.3823 78.0265 18.5127 77.9172 18.9689C77.8517 19.273 76.8902 23.0313 75.9507 26.6591C75.3607 28.9402 72.3236 31.7643 68.4997 31.7643C65.987 31.7643 64.6759 30.374 64.6759 27.5933C65.3315 27.854 66.7955 28.0712 67.8224 28.0712C72.258 28.0712 75.0111 26.1377 75.0111 22.2709C75.0111 20.1854 73.1758 18.013 69.5486 18.013H69.5267C64.1515 18.013 60.874 22.1623 60.3059 26.8764C60.0656 28.8315 58.405 31.5253 56.6133 31.5253C55.7392 31.5253 55.2367 30.9822 55.2367 30.0481C55.2367 29.4133 55.5909 28.0607 56.052 26.3003C56.1748 25.8314 56.3052 25.3334 56.4385 24.8126C56.5795 24.2796 56.757 23.5655 56.9592 22.7522C57.0702 22.306 57.1886 21.8292 57.3125 21.3368H60.2404C60.6774 21.3368 60.9177 21.163 61.027 20.7503C61.1581 20.1637 61.4202 19.1427 61.5077 18.882C61.595 18.5127 61.3984 18.252 60.9833 18.252H58.099C58.099 18.252 59.4101 13.0165 59.4538 12.8644C59.5849 12.3214 59.126 12.0172 58.6671 12.1259C58.6671 12.1259 56.4385 12.5603 56.0233 12.6471C55.6081 12.734 55.2804 12.973 55.1274 13.5596L53.9475 18.2737H51.6532C51.2162 18.2737 50.954 18.4475 50.8666 18.8603C50.8111 19.0733 50.744 19.3437 50.6769 19.6141L50.6766 19.615C50.5591 20.0888 50.4415 20.5626 50.3859 20.7285C50.2985 21.0978 50.4952 21.3585 50.9103 21.3585H53.1609C53.139 21.4237 52.3524 24.4433 51.6969 27.1588C51.391 28.4622 50.364 31.5253 48.7035 31.5253C47.6983 31.5253 47.2831 31.0257 47.2831 29.9395C47.2831 29.1178 47.6788 27.6984 48.0864 26.2362C48.5193 24.6831 48.9656 23.0818 48.9656 22.0971C48.9656 19.5337 47.5891 18.0347 44.7486 18.0347C42.9568 18.0347 41.0996 19.1861 40.3129 20.1854C40.3129 20.1854 40.5533 19.3599 40.6407 19.034C40.7281 18.7734 40.5752 18.4909 40.3129 18.404C40.2474 18.3823 40.16 18.3823 40.0945 18.3823H37.3413C36.7513 18.3823 36.5984 18.7082 36.511 19.034C36.4874 19.1044 36.1896 20.2778 35.7693 21.9344C35.4114 23.3446 34.9647 25.1048 34.5226 26.8329C33.8672 29.4181 32.272 31.5688 30.5678 31.5688C29.6937 31.5688 29.3004 31.0257 29.3004 30.0915C29.3004 29.3872 29.7031 27.7823 30.2143 25.7443L30.2147 25.7428C30.2868 25.4554 30.3611 25.1593 30.4367 24.856C30.8394 23.2771 31.2119 21.8489 31.4838 20.8061C31.7281 19.8693 31.8915 19.2431 31.9224 19.0992C32.0099 18.7299 31.8569 18.4258 31.3762 18.4258H28.5794C28.0768 18.4258 27.8802 18.6865 27.7927 19.0558C27.7927 19.0558 27.0062 22.0103 26.1758 25.3122C26.1206 25.5279 26.0651 25.744 26.0096 25.9594L26.0087 25.963C25.4504 28.1331 24.9085 30.2395 24.9085 31.2864C24.9085 33.3284 25.8262 34.8708 28.3609 34.8708C30.3055 34.8708 31.8569 33.8933 33.0368 32.6333C32.9985 32.7808 32.9633 32.9171 32.9316 33.0402C32.8184 33.4781 32.748 33.7507 32.7309 33.7846C32.6217 34.1756 32.7527 34.5233 33.2116 34.5233H36.074C36.5765 34.5233 36.7513 34.3277 36.8606 33.8933C36.9699 33.4588 39.0893 25.1384 39.0893 25.1384C39.6574 22.9009 41.0558 21.402 43.0224 21.402C43.9619 21.402 44.7486 22.0103 44.6611 23.2051C44.618 23.7203 44.3459 24.7688 44.0328 25.9758C43.5538 27.8217 42.9787 30.0386 42.9787 31.2864C42.9787 32.8505 43.5686 34.8708 46.5184 34.8708C48.5287 34.8708 50.0363 33.915 51.107 32.655C51.5003 33.9802 52.5491 34.8708 54.4719 34.8708C57.6621 34.8708 59.5849 32.9808 60.721 31.0908C61.6607 33.285 63.8675 34.8708 67.0795 34.8708C69.9637 34.8925 72.7387 33.7195 74.7052 31.6122C74.5494 32.2112 74.4183 32.7218 74.3213 33.0997C74.2142 33.5167 74.1486 33.7722 74.1371 33.8064C74.0279 34.1974 74.2027 34.5233 74.6834 34.5233H77.5021C77.8735 34.545 78.2013 34.2842 78.2668 33.915C78.2856 33.831 78.3728 33.4948 78.5112 32.9614C78.6952 32.2523 78.9696 31.1947 79.2938 29.9177C80.4081 25.6598 82.178 21.2282 84.8437 21.2282C85.7833 21.2282 86.1766 21.7496 86.1766 22.5751C86.1766 22.8792 86.1111 23.2051 85.9581 23.4874C84.6689 23.2268 83.6201 23.8567 83.6201 25.2253C83.6201 26.116 84.5816 26.9415 85.8489 26.9415C86.8322 26.9415 87.6405 26.7026 88.2742 26.2681C88.5041 26.3189 88.7439 26.3697 88.9897 26.4217C89.3747 26.5033 89.7753 26.5881 90.1752 26.6808C90.0878 27.2891 90.0222 27.9191 90.0222 28.5491C90.0222 31.9815 92.6005 34.8925 97.0141 34.8925C100.467 34.8925 102.695 33.7412 104.772 32.025C105.754 33.6326 108.246 34.9142 111.501 34.9142C115.958 34.9142 118.515 32.6115 118.515 29.5484C118.515 26.7895 116.22 25.7684 113.883 24.9212C113.649 24.8369 113.421 24.7573 113.199 24.6802C111.596 24.122 110.365 23.6933 110.365 22.5099C110.365 21.402 111.239 20.9023 112.724 20.9023C113.424 20.9023 114.145 21.0109 114.822 21.2282C115.216 22.184 116.002 23.2484 117.357 23.2484C118.515 23.2484 119.018 22.3361 119.018 21.5106C119.018 20.5513 118.365 19.9377 117.588 19.2079C116.448 18.1363 115.041 16.8137 115.041 13.7768C115.041 10.6052 116.855 7.99827 120.591 7.99827C123.191 7.99827 124.895 9.62759 124.895 12.2778C124.895 14.4503 123.562 18.3389 123.562 18.3389H121.312C120.875 18.3389 120.613 18.5127 120.525 18.9254C120.47 19.1384 120.403 19.4089 120.336 19.6793L120.335 19.6804C120.218 20.154 120.1 20.6279 120.044 20.7937C119.957 21.163 120.154 21.4237 120.569 21.4237H122.776C122.776 21.4237 120.504 29.7874 120.504 31.3081C120.504 33.3502 121.661 34.8925 124.196 34.8925C127.78 34.8925 130.03 32.5898 130.992 29.2226C131.057 29.0488 130.992 28.8533 130.817 28.7664C130.773 28.7446 130.708 28.7446 130.664 28.7446H129.287C129.047 28.7446 128.828 28.9184 128.785 29.1574C128.478 30.3522 127.714 31.6122 126.206 31.6122C125.332 31.6122 124.829 31.0691 124.829 30.135C124.829 29.4246 125.239 27.8826 125.802 25.7641C125.876 25.4857 125.953 25.1973 126.032 24.8995C126.359 23.596 126.905 21.3368 126.905 21.3368ZM33.4717 13.9946C33.3625 15.4718 32.1389 16.6449 30.7186 16.6449C29.2983 16.6449 28.2277 15.4501 28.315 13.9946C28.4243 12.5174 29.6479 11.3443 31.0682 11.3443C32.4885 11.3443 33.5592 12.5391 33.4717 13.9946Z" fill="#B7BFC7"/>
</g>
</svg>
