<svg width="44" height="44" viewBox="0 0 44 44" fill="none" xmlns="http://www.w3.org/2000/svg">
<path d="M44 22C44 9.84974 34.1503 0 22 0C9.84974 0 0 9.84974 0 22C0 34.1503 9.84974 44 22 44C34.1503 44 44 34.1503 44 22Z" fill="#002D11"/>
<path d="M26.0455 29.2612C26.0455 21.9997 17.9492 21.9997 17.9492 14.7383" stroke="#3FB950" stroke-width="2.61905" stroke-miterlimit="10" stroke-linecap="round" stroke-linejoin="round"/>
<path d="M30.3097 22.1253C24.0208 18.4931 19.9726 25.5056 13.6836 21.8733" stroke="#3FB950" stroke-width="2.61905" stroke-miterlimit="10" stroke-linecap="round" stroke-linejoin="round"/>
<path d="M26.2681 14.864C19.9791 18.4962 24.0272 25.5058 17.7383 29.1351" stroke="#3FB950" stroke-width="2.61905" stroke-miterlimit="10" stroke-linecap="round" stroke-linejoin="round"/>
<path d="M17.9531 14.7383C17.9531 21.9997 26.0494 21.9997 26.0494 29.2612" stroke="#3FB950" stroke-width="2.61905" stroke-miterlimit="10" stroke-linecap="round" stroke-linejoin="round"/>
<path d="M13.6875 21.8733C19.9765 25.5056 24.0247 18.4931 30.3136 22.1253" stroke="#3FB950" stroke-width="2.61905" stroke-miterlimit="10" stroke-linecap="round" stroke-linejoin="round"/>
<path d="M17.7383 29.1351C24.0272 25.5029 19.9791 18.4933 26.2681 14.864" stroke="#3FB950" stroke-width="2.61905" stroke-miterlimit="10" stroke-linecap="round" stroke-linejoin="round"/>
</svg>
