<svg width="163" height="32" viewBox="0 0 163 32" fill="none" xmlns="http://www.w3.org/2000/svg">
<path d="M97.235 9.46604V6.14258H85.3789V23.2421H97.235V19.774H90.179V15.9834H96.0473V12.664H90.179V9.46604H97.235Z" fill="#B7BFC7"/>
<path d="M118.141 19.8679H110.734V6.14258H105.875V23.2421H118.141V19.8679Z" fill="#B7BFC7"/>
<path d="M157.277 12.6592C153.998 11.9205 152.85 11.8349 152.85 10.5304C152.85 9.31994 154.475 8.94343 155.41 8.94343C156.921 8.94343 158.706 9.29594 160.526 10.2287L161.849 7.08211C159.984 6.06573 157.592 5.64258 155.291 5.64258C150.769 5.64258 147.735 7.47715 147.608 11.0537C147.479 14.3155 150.131 15.5355 152.568 16.0389C154.918 16.5244 157.301 16.94 157.349 18.3357C157.393 19.623 156.235 20.1744 154.051 20.1744C152.028 20.1744 150.147 19.5242 148.225 18.7191L147.102 22.1393C149.311 23.0788 151.554 23.5966 153.866 23.5966C157.078 23.5966 159.423 23.0953 161.148 21.4755C162.344 20.3631 162.735 19.0202 162.735 17.7384C162.738 15.0356 161.054 13.5131 157.277 12.6592Z" fill="#B7BFC7"/>
<path d="M78.4867 9.51818V6.14258H63.5742V9.51818H68.6123V23.2421H73.4425V9.51818H78.4867Z" fill="#B7BFC7"/>
<path d="M134.719 6.14258V17.0066C134.719 17.8578 134.719 18.0929 134.669 18.4242C134.512 19.4598 133.509 20.0606 131.909 20.0819C130.724 20.0627 129.856 19.7122 129.451 19.0929C129.248 18.7747 129.149 18.2027 129.149 17.2892V6.14258H124.109V17.927C124.109 19.5599 124.328 20.2972 125.066 21.2292C126.281 22.7497 128.653 23.5493 131.919 23.5493C131.955 23.5493 131.987 23.5493 132.026 23.5493C132.043 23.5493 132.073 23.5493 132.098 23.5493C136.47 23.5493 138.728 21.8444 139.38 20.2492C139.706 19.4756 139.73 19.1093 139.73 17.5484V6.14258H134.719Z" fill="#B7BFC7"/>
<path d="M65.8504 1.4607L37.5898 7.08717V9.05821L37.6797 9.0349C56.349 4.49682 65.8498 1.76727 65.9266 1.74806C66.0322 1.72062 66.0692 1.63833 66.0548 1.56906C66.039 1.49637 65.9629 1.43601 65.8504 1.4607Z" fill="#B7BFC7"/>
<path d="M42.8739 0.92277C41.5001 1.00095 38.9565 3.03578 37.5601 4.24419C32.0001 9.05453 27.866 13.476 24.8601 18.1066C18.5938 21.463 10.6033 24.9148 2.6711 27.6087L2.47976 27.6731L0.953125 31.7839L1.8248 31.4472C6.87106 29.5242 15.2936 25.9127 22.9289 21.8979C22.4989 23.0446 22.2821 24.0987 22.2821 25.0595C22.2821 25.7761 22.4021 26.4428 22.6415 27.0483C23.1216 28.2581 24.068 29.1744 25.38 29.6949C27.3338 30.4747 29.9996 30.4891 33.0413 29.5681C40.8116 27.2129 50.0283 19.9817 52.035 18.5435L52.1118 18.4894C52.1907 18.4325 52.1962 18.3467 52.1633 18.2884C52.1193 18.2219 52.0268 18.2041 51.9507 18.2507L51.8519 18.3104C49.6984 19.6031 39.2342 25.816 32.4322 27.6402C28.9675 28.5696 26.3271 28.062 25.3312 26.6692C24.9857 26.1932 24.819 25.591 24.819 24.8888C24.819 23.5178 25.4643 21.7724 26.707 19.8322C27.851 19.1814 28.9195 18.5449 29.8824 17.94C36.5183 14.2105 44.1638 6.95935 44.4903 2.53307C44.4917 2.5029 44.4917 2.46792 44.4917 2.435C44.4917 2.053 44.3265 1.66003 44.0363 1.36992C43.725 1.05239 43.3149 0.893966 42.8739 0.92277ZM42.1339 3.03235C42.5693 2.75048 42.6949 2.92673 42.5666 3.24496C42.3595 3.75315 41.4014 6.81053 34.2874 12.651C32.4309 14.1715 31.1107 15.0253 28.4374 16.6081C32.815 10.4735 39.2061 4.93345 42.1339 3.03235Z" fill="#B7BFC7"/>
<path d="M37.4969 7.10547L7.76388 13.4966L6.61719 16.589L37.5895 9.05731L38.5476 8.51621L38.5209 7.1089L37.4969 7.10547Z" fill="#B7BFC7"/>
</svg>
